<?xml version="1.0" encoding="UTF-8"?> <svg xmlns="http://www.w3.org/2000/svg" id="Branches" viewBox="0 0 425.88 513.39"><defs><style>.cls-1{fill:#cb2028;}.cls-2{fill:#376db4;}.cls-3{fill:#7e4298;}.cls-4{fill:#3babc8;}.cls-5{fill:#48bc96;}.cls-6{fill:#ae3d95;}.cls-7{fill:#b9c0c3;}.cls-8{fill:#141421;}</style></defs><path class="cls-1" d="M327.19,414H272v-3h55.22A11.93,11.93,0,0,0,339.11,399v-8.76h3V399A14.93,14.93,0,0,1,327.19,414Z"></path><polygon class="cls-1" points="333.32 391.24 347.9 391.24 340.61 383.96 333.32 391.24"></polygon><path class="cls-2" d="M186.74,156.6h-3V139.79a11.93,11.93,0,0,0-11.92-11.92H99.88v-3h71.94a14.94,14.94,0,0,1,14.92,14.92Z"></path><path class="cls-3" d="M223.55,454.79H93v-3H223.55a11.94,11.94,0,0,0,11.92-11.92v-8.76h3v8.76A14.94,14.94,0,0,1,223.55,454.79Z"></path><polygon class="cls-3" points="229.68 432.08 244.26 432.08 236.97 424.8 229.68 432.08"></polygon><path class="cls-4" d="M120,127.8H92.24v-3H120a11.94,11.94,0,0,0,11.92-11.92v-8.76h3v8.76A14.94,14.94,0,0,1,120,127.8Z"></path><polygon class="cls-4" points="126.12 105.09 140.7 105.09 133.41 97.81 126.12 105.09"></polygon><path class="cls-2" d="M223.55,168.68H195.8v-3h27.75a11.94,11.94,0,0,0,11.92-11.92V145h3v8.76A14.94,14.94,0,0,1,223.55,168.68Z"></path><path class="cls-2" d="M223.55,86.73H144.66v-3h78.89a11.94,11.94,0,0,0,11.92-11.92V63.05h3v8.76A14.94,14.94,0,0,1,223.55,86.73Z"></path><path class="cls-2" d="M198.61,251.09h27.74v-3H198.61a11.93,11.93,0,0,1-11.93-11.92v-9.41h-3v9.41A14.94,14.94,0,0,0,198.61,251.09Z"></path><polygon class="cls-2" points="192.47 227.74 177.9 227.74 185.18 220.45 192.47 227.74"></polygon><path class="cls-5" d="M81.66,443.8a9.47,9.47,0,1,1-9.47,9.47,9.48,9.48,0,0,1,9.47-9.47m0-3a12.47,12.47,0,1,0,12.47,12.47A12.48,12.48,0,0,0,81.66,440.8Z"></path><path class="cls-3" d="M237,402.92a9.47,9.47,0,1,1-9.47,9.47,9.48,9.48,0,0,1,9.47-9.47m0-3a12.47,12.47,0,1,0,12.47,12.47A12.47,12.47,0,0,0,237,399.92Z"></path><path class="cls-6" d="M288.74,362a9.47,9.47,0,1,1-9.47,9.47,9.48,9.48,0,0,1,9.47-9.47m0-3a12.47,12.47,0,1,0,12.47,12.47A12.47,12.47,0,0,0,288.74,359Z"></path><path class="cls-1" d="M340.51,362a9.47,9.47,0,1,1-9.47,9.47,9.47,9.47,0,0,1,9.47-9.47m0-3A12.47,12.47,0,1,0,353,371.51,12.47,12.47,0,0,0,340.51,359Z"></path><path class="cls-6" d="M288.74,321.16a9.47,9.47,0,1,1-9.47,9.47,9.48,9.48,0,0,1,9.47-9.47m0-3a12.47,12.47,0,1,0,12.47,12.47,12.47,12.47,0,0,0-12.47-12.47Z"></path><path class="cls-1" d="M340.51,321.16a9.47,9.47,0,1,1-9.47,9.47,9.47,9.47,0,0,1,9.47-9.47m0-3A12.47,12.47,0,1,0,353,330.63a12.47,12.47,0,0,0-12.46-12.47Z"></path><path class="cls-3" d="M237,280.28a9.47,9.47,0,1,1-9.47,9.47,9.48,9.48,0,0,1,9.47-9.47m0-3a12.47,12.47,0,1,0,12.47,12.47A12.47,12.47,0,0,0,237,277.28Z"></path><path class="cls-1" d="M340.51,280.28a9.47,9.47,0,1,1-9.47,9.47,9.47,9.47,0,0,1,9.47-9.47m0-3A12.47,12.47,0,1,0,353,289.75a12.47,12.47,0,0,0-12.46-12.47Z"></path><path class="cls-3" d="M237,239.4a9.47,9.47,0,1,1-9.47,9.47A9.48,9.48,0,0,1,237,239.4m0-3a12.47,12.47,0,1,0,12.47,12.47A12.47,12.47,0,0,0,237,236.4Z"></path><path class="cls-2" d="M185.2,198.52a9.47,9.47,0,1,1-9.47,9.46,9.47,9.47,0,0,1,9.47-9.46m0-3A12.47,12.47,0,1,0,197.67,208a12.46,12.46,0,0,0-12.47-12.46Z"></path><path class="cls-2" d="M185.2,157.63a9.47,9.47,0,1,1-9.47,9.47,9.48,9.48,0,0,1,9.47-9.47m0-3a12.47,12.47,0,1,0,12.47,12.47,12.47,12.47,0,0,0-12.47-12.47Z"></path><path class="cls-5" d="M81.66,116.75a9.47,9.47,0,1,1-9.47,9.47,9.48,9.48,0,0,1,9.47-9.47m0-3a12.47,12.47,0,1,0,12.47,12.47,12.47,12.47,0,0,0-12.47-12.47Z"></path><path class="cls-3" d="M237,116.75a9.47,9.47,0,1,1-9.47,9.47,9.48,9.48,0,0,1,9.47-9.47m0-3a12.47,12.47,0,1,0,12.47,12.47A12.47,12.47,0,0,0,237,113.75Z"></path><path class="cls-4" d="M133.43,75.87A9.47,9.47,0,1,1,124,85.34a9.48,9.48,0,0,1,9.47-9.47m0-3A12.47,12.47,0,1,0,145.9,85.34a12.47,12.47,0,0,0-12.47-12.47Z"></path><path class="cls-5" d="M81.66,35a9.47,9.47,0,1,1-9.47,9.47A9.48,9.48,0,0,1,81.66,35m0-3A12.47,12.47,0,1,0,94.13,44.46,12.47,12.47,0,0,0,81.66,32Z"></path><path class="cls-3" d="M237,35a9.47,9.47,0,1,1-9.47,9.47A9.48,9.48,0,0,1,237,35m0-3a12.47,12.47,0,1,0,12.47,12.47A12.47,12.47,0,0,0,237,32Z"></path><rect class="cls-5" x="80.16" y="472.05" width="3" height="16.17"></rect><polygon class="cls-5" points="88.95 473.03 74.37 473.03 81.66 465.74 88.95 473.03"></polygon><rect class="cls-3" x="235.47" y="440.67" width="3" height="47.55"></rect><rect class="cls-3" x="235.47" y="267.64" width="3" height="11.65"></rect><polygon class="cls-3" points="244.26 268.62 229.68 268.62 236.97 261.33 244.26 268.62"></polygon><rect class="cls-6" x="287.24" y="349.41" width="3" height="11.65"></rect><polygon class="cls-6" points="296.03 350.38 281.45 350.38 288.74 343.1 296.03 350.38"></polygon><rect class="cls-1" x="339.01" y="349.41" width="3" height="11.65"></rect><polygon class="cls-1" points="347.8 350.38 333.22 350.38 340.51 343.1 347.8 350.38"></polygon><rect class="cls-1" x="339.01" y="308.55" width="3" height="11.65"></rect><polygon class="cls-1" points="347.8 309.53 333.22 309.53 340.51 302.24 347.8 309.53"></polygon><rect class="cls-2" x="183.74" y="185.85" width="3" height="11.65"></rect><polygon class="cls-2" points="192.53 186.83 177.96 186.83 185.24 179.54 192.53 186.83"></polygon><rect class="cls-3" x="235.47" y="145" width="3" height="92.76"></rect><polygon class="cls-3" points="244.26 145.98 229.68 145.98 236.97 138.69 244.26 145.98"></polygon><rect class="cls-3" x="235.47" y="63.24" width="3" height="52.69"></rect><polygon class="cls-3" points="244.26 64.21 229.68 64.21 236.97 56.93 244.26 64.21"></polygon><rect class="cls-5" x="80.16" y="63.24" width="3" height="52.1"></rect><polygon class="cls-5" points="88.95 64.21 74.37 64.21 81.66 56.93 88.95 64.21"></polygon><rect class="cls-3" x="235.47" y="6.31" width="3" height="27.62"></rect><polygon class="cls-3" points="244.26 7.29 229.68 7.29 236.97 0 244.26 7.29"></polygon><rect class="cls-5" x="80.16" y="6.31" width="3" height="27.03"></rect><polygon class="cls-5" points="88.95 7.29 74.37 7.29 81.66 0 88.95 7.29"></polygon><rect class="cls-5" x="80.16" y="145" width="3" height="297.86"></rect><polygon class="cls-5" points="88.95 145.98 74.37 145.98 81.66 138.69 88.95 145.98"></polygon><rect class="cls-3" x="235.47" y="308.53" width="3" height="93.16"></rect><polygon class="cls-3" points="244.26 309.5 229.68 309.5 236.97 302.21 244.26 309.5"></polygon><path class="cls-7" d="M66.14,509.07,63,499H63c.11,2.05.17,3.42.17,4.1v6H60.7V496.22h3.7l3,9.83h0l3.22-9.83h3.71v12.85H71.89V503c0-.29,0-.62,0-1s0-1.38.11-3H72l-3.32,10.06Z"></path><path class="cls-7" d="M83.7,509.07l-.52-1.34h-.07a4,4,0,0,1-1.4,1.19,4.46,4.46,0,0,1-1.86.33,3,3,0,0,1-2.23-.81,3.12,3.12,0,0,1-.81-2.3,2.58,2.58,0,0,1,1.09-2.31,6.27,6.27,0,0,1,3.3-.82l1.71-.06v-.43A1.34,1.34,0,0,0,81.38,501a7,7,0,0,0-2.77.71l-.89-1.81a8,8,0,0,1,3.76-.89,4.69,4.69,0,0,1,3,.86,3.18,3.18,0,0,1,1.06,2.62v6.55Zm-.79-4.55-1,0a3.35,3.35,0,0,0-1.74.43,1.31,1.31,0,0,0-.57,1.17c0,.76.43,1.14,1.3,1.14a2.07,2.07,0,0,0,1.49-.54,1.89,1.89,0,0,0,.56-1.42Z"></path><path class="cls-7" d="M88.21,496.7c0-.87.49-1.31,1.46-1.31s1.46.44,1.46,1.31a1.31,1.31,0,0,1-.36,1,1.56,1.56,0,0,1-1.1.34C88.7,498,88.21,497.58,88.21,496.7ZM91,509.07H88.33v-9.83H91Z"></path><path class="cls-7" d="M102.89,509.07h-2.68v-5.74a2.67,2.67,0,0,0-.38-1.59,1.36,1.36,0,0,0-1.2-.54A1.83,1.83,0,0,0,97,502a4.69,4.69,0,0,0-.5,2.49v4.62H93.82v-9.83h2.05l.36,1.26h.15a2.93,2.93,0,0,1,1.23-1.08,4.27,4.27,0,0,1,1.79-.36,3.41,3.41,0,0,1,2.6.93,3.68,3.68,0,0,1,.89,2.67Z"></path><path class="cls-7" d="M212.82,502.52a6.33,6.33,0,0,1-1.81,4.86,7.34,7.34,0,0,1-5.22,1.69h-3.64V496.22h4a6.79,6.79,0,0,1,4.89,1.66A6.12,6.12,0,0,1,212.82,502.52Zm-2.83.07q0-4.14-3.66-4.14h-1.45v8.37h1.17C208.67,506.82,210,505.41,210,502.59Z"></path><path class="cls-7" d="M219.72,509.25a5.07,5.07,0,0,1-3.71-1.31,5,5,0,0,1-1.34-3.71,5.47,5.47,0,0,1,1.23-3.82,4.42,4.42,0,0,1,3.42-1.35,4.32,4.32,0,0,1,3.24,1.19,4.45,4.45,0,0,1,1.16,3.27v1.31h-6.33a2.59,2.59,0,0,0,.67,1.78,2.38,2.38,0,0,0,1.78.64,7.59,7.59,0,0,0,1.68-.18,8.91,8.91,0,0,0,1.65-.59v2.07a5.92,5.92,0,0,1-1.5.52A9.12,9.12,0,0,1,219.72,509.25Zm-.38-8.28a1.7,1.7,0,0,0-1.34.54,2.47,2.47,0,0,0-.55,1.53h3.76a2.19,2.19,0,0,0-.52-1.53A1.74,1.74,0,0,0,219.34,501Z"></path><path class="cls-7" d="M228.24,509.07l-3.74-9.83h2.8l1.9,5.6a9.82,9.82,0,0,1,.39,2h.06a9,9,0,0,1,.39-2l1.89-5.6h2.81L231,509.07Z"></path><path class="cls-7" d="M240.59,509.25a5.09,5.09,0,0,1-3.71-1.31,5,5,0,0,1-1.34-3.71,5.47,5.47,0,0,1,1.24-3.82,5,5,0,0,1,6.66-.16,4.49,4.49,0,0,1,1.16,3.27v1.31h-6.34a2.59,2.59,0,0,0,.68,1.78,2.36,2.36,0,0,0,1.77.64,7.59,7.59,0,0,0,1.68-.18,8.66,8.66,0,0,0,1.65-.59v2.07a5.92,5.92,0,0,1-1.5.52A9,9,0,0,1,240.59,509.25Zm-.38-8.28a1.68,1.68,0,0,0-1.33.54,2.47,2.47,0,0,0-.56,1.53h3.76a2.24,2.24,0,0,0-.51-1.53A1.78,1.78,0,0,0,240.21,501Z"></path><path class="cls-7" d="M249.46,509.07h-2.68V495.39h2.68Z"></path><path class="cls-7" d="M261.2,504.14a5.24,5.24,0,0,1-1.27,3.75,4.54,4.54,0,0,1-3.52,1.36,5,5,0,0,1-2.5-.62,4.2,4.2,0,0,1-1.66-1.78,6.11,6.11,0,0,1-.58-2.71,5.22,5.22,0,0,1,1.26-3.74,4.61,4.61,0,0,1,3.53-1.34,5,5,0,0,1,2.5.62,4.1,4.1,0,0,1,1.66,1.76A5.9,5.9,0,0,1,261.2,504.14Zm-6.79,0a4.14,4.14,0,0,0,.48,2.21,2,2,0,0,0,3.1,0,4.2,4.2,0,0,0,.47-2.21A4,4,0,0,0,258,502a2,2,0,0,0-3.1,0A4,4,0,0,0,254.41,504.14Z"></path><path class="cls-7" d="M268.81,509.25A3.24,3.24,0,0,1,266.1,508H266c.1.82.15,1.29.15,1.42v4h-2.69V499.24h2.18l.38,1.28h.13a3.09,3.09,0,0,1,2.78-1.46,3.22,3.22,0,0,1,2.73,1.34,6.29,6.29,0,0,1,1,3.74,7.29,7.29,0,0,1-.46,2.73,3.85,3.85,0,0,1-1.31,1.77A3.42,3.42,0,0,1,268.81,509.25ZM268,501.2a1.71,1.71,0,0,0-1.45.61,3.55,3.55,0,0,0-.47,2v.29a4.09,4.09,0,0,0,.47,2.27,1.67,1.67,0,0,0,1.49.69c1.2,0,1.8-1,1.8-3a4.18,4.18,0,0,0-.45-2.17A1.52,1.52,0,0,0,268,501.2Z"></path><path class="cls-7" d="M260.61,432.5h-2.09v-10h5.73v1.73h-3.64v2.58H264v1.73h-3.39Z"></path><path class="cls-7" d="M269.5,432.64a3.93,3.93,0,0,1-2.88-1,3.83,3.83,0,0,1-1-2.89,4.24,4.24,0,0,1,1-3,3.89,3.89,0,0,1,5.18-.12,3.48,3.48,0,0,1,.9,2.55v1h-4.93a2,2,0,0,0,.53,1.39,1.83,1.83,0,0,0,1.38.49,5.46,5.46,0,0,0,1.3-.14,6.29,6.29,0,0,0,1.29-.46v1.62a5.21,5.21,0,0,1-1.17.4A7.29,7.29,0,0,1,269.5,432.64Zm-.29-6.44a1.31,1.31,0,0,0-1,.42,1.91,1.91,0,0,0-.43,1.19h2.92a1.74,1.74,0,0,0-.4-1.19A1.36,1.36,0,0,0,269.21,426.2Z"></path><path class="cls-7" d="M279.17,432.5l-.41-1h-.05a3.09,3.09,0,0,1-1.08.92,3.57,3.57,0,0,1-1.46.26,2.34,2.34,0,0,1-1.73-.63,2.43,2.43,0,0,1-.63-1.79,2,2,0,0,1,.85-1.8,5,5,0,0,1,2.57-.64l1.32,0v-.33a1,1,0,0,0-1.19-1.17,5.4,5.4,0,0,0-2.15.56l-.69-1.41a6.2,6.2,0,0,1,2.92-.69,3.61,3.61,0,0,1,2.36.67,2.48,2.48,0,0,1,.82,2v5.09Zm-.62-3.54-.8,0a2.54,2.54,0,0,0-1.36.32,1,1,0,0,0-.44.92c0,.59.33.88,1,.88a1.6,1.6,0,0,0,1.16-.42,1.43,1.43,0,0,0,.43-1.1Z"></path><path class="cls-7" d="M286,431a4.88,4.88,0,0,0,1.31-.24v1.55a4.72,4.72,0,0,1-1.91.35,2.3,2.3,0,0,1-1.82-.64,2.74,2.74,0,0,1-.57-1.89v-3.69h-1v-.88l1.15-.7.6-1.61h1.33v1.63h2.14v1.56h-2.14v3.69a.8.8,0,0,0,.25.65A1,1,0,0,0,286,431Z"></path><path class="cls-7" d="M294.26,432.5l-.28-1h-.11a2.21,2.21,0,0,1-.95.83,3.3,3.3,0,0,1-1.4.29,2.67,2.67,0,0,1-2-.72,2.91,2.91,0,0,1-.68-2.08v-5h2.08v4.46a2.18,2.18,0,0,0,.29,1.24,1.07,1.07,0,0,0,.94.42,1.42,1.42,0,0,0,1.27-.59,3.64,3.64,0,0,0,.39-1.94v-3.59h2.08v7.64Z"></path><path class="cls-7" d="M302.31,424.71a3.48,3.48,0,0,1,.71.06l-.16,2a2.18,2.18,0,0,0-.61-.07,2.22,2.22,0,0,0-1.56.51,1.88,1.88,0,0,0-.56,1.44v3.89h-2.08v-7.64h1.58l.3,1.28H300a2.72,2.72,0,0,1,1-1A2.3,2.3,0,0,1,302.31,424.71Z"></path><path class="cls-7" d="M307.86,432.64a3.93,3.93,0,0,1-2.88-1,3.87,3.87,0,0,1-1-2.89,4.24,4.24,0,0,1,1-3,3.43,3.43,0,0,1,2.66-1.05,3.34,3.34,0,0,1,2.52.93,3.48,3.48,0,0,1,.9,2.55v1h-4.93a2.06,2.06,0,0,0,.53,1.39,1.86,1.86,0,0,0,1.38.49,5.54,5.54,0,0,0,1.31-.14,6.21,6.21,0,0,0,1.28-.46v1.62a4.89,4.89,0,0,1-1.17.4A7.22,7.22,0,0,1,307.86,432.64Zm-.29-6.44a1.33,1.33,0,0,0-1,.42,2,2,0,0,0-.43,1.19H309a1.74,1.74,0,0,0-.41-1.19A1.36,1.36,0,0,0,307.57,426.2Z"></path><path class="cls-7" d="M321,432.5h-2.11v-5.78l0-1,0-1c-.36.35-.6.58-.74.69l-1.14.92-1-1.27,3.22-2.56H321Z"></path><path class="cls-7" d="M120.36,261.9v3.83h-2.12v-10h2.91a5,5,0,0,1,3,.74,3,3,0,0,1,.5,3.82,3.22,3.22,0,0,1-1.38,1.08q2.27,3.38,2.94,4.35h-2.35l-2.39-3.83Zm0-1.72H121a2.55,2.55,0,0,0,1.48-.34,1.18,1.18,0,0,0,.48-1,1.09,1.09,0,0,0-.49-1,3,3,0,0,0-1.51-.3h-.64Z"></path><path class="cls-7" d="M130.78,265.87a3.93,3.93,0,0,1-2.89-1,3.86,3.86,0,0,1-1-2.88,4.24,4.24,0,0,1,1-3,3.43,3.43,0,0,1,2.66-1.05,3.38,3.38,0,0,1,2.52.92,3.51,3.51,0,0,1,.9,2.55v1H129a2,2,0,0,0,.53,1.39,1.87,1.87,0,0,0,1.38.5,6.12,6.12,0,0,0,1.31-.14,6.61,6.61,0,0,0,1.28-.46v1.61a4.91,4.91,0,0,1-1.17.41A7.25,7.25,0,0,1,130.78,265.87Zm-.3-6.44a1.33,1.33,0,0,0-1,.42,2,2,0,0,0-.43,1.2h2.93a1.75,1.75,0,0,0-.41-1.2A1.36,1.36,0,0,0,130.48,259.43Z"></path><path class="cls-7" d="M137.67,265.73h-2.08V255.1h2.08Z"></path><path class="cls-7" d="M143.32,265.87a4,4,0,0,1-2.89-1,3.86,3.86,0,0,1-1-2.88,4.24,4.24,0,0,1,1-3,3.89,3.89,0,0,1,5.17-.13,3.48,3.48,0,0,1,.91,2.55v1h-4.93a2,2,0,0,0,.52,1.39,1.87,1.87,0,0,0,1.38.5,6.12,6.12,0,0,0,1.31-.14,6.94,6.94,0,0,0,1.29-.46v1.61a5.24,5.24,0,0,1-1.17.41A7.35,7.35,0,0,1,143.32,265.87Zm-.29-6.44a1.31,1.31,0,0,0-1,.42,1.86,1.86,0,0,0-.43,1.2h2.92a1.75,1.75,0,0,0-.4-1.2A1.36,1.36,0,0,0,143,259.43Z"></path><path class="cls-7" d="M153,265.73l-.4-1h-.05a3.13,3.13,0,0,1-1.09.92,3.5,3.5,0,0,1-1.45.25,2.34,2.34,0,0,1-1.73-.63,2.41,2.41,0,0,1-.63-1.79,2,2,0,0,1,.85-1.79A4.84,4.84,0,0,1,151,261l1.33,0v-.34a1,1,0,0,0-1.19-1.16A5.36,5.36,0,0,0,149,260l-.69-1.4a6.2,6.2,0,0,1,2.92-.69,3.69,3.69,0,0,1,2.36.66,2.48,2.48,0,0,1,.82,2v5.09Zm-.61-3.54-.81,0a2.62,2.62,0,0,0-1.35.33,1,1,0,0,0-.44.92c0,.58.33.88,1,.88a1.6,1.6,0,0,0,1.16-.42,1.47,1.47,0,0,0,.43-1.11Z"></path><path class="cls-7" d="M161.92,263.47a2.1,2.1,0,0,1-.82,1.79,4,4,0,0,1-2.44.61,8.11,8.11,0,0,1-1.42-.11,6.13,6.13,0,0,1-1.1-.33V263.7a6.39,6.39,0,0,0,1.3.46,5.09,5.09,0,0,0,1.29.19c.75,0,1.13-.22,1.13-.66a.55.55,0,0,0-.15-.4,2.17,2.17,0,0,0-.52-.35c-.24-.13-.57-.28-1-.45a6.44,6.44,0,0,1-1.3-.69,2,2,0,0,1-.6-.72,2.44,2.44,0,0,1-.19-1,1.82,1.82,0,0,1,.79-1.57,3.81,3.81,0,0,1,2.24-.56,6.38,6.38,0,0,1,2.69.6l-.63,1.5c-.38-.16-.74-.29-1.07-.4a3.61,3.61,0,0,0-1-.16c-.62,0-.93.17-.93.5a.59.59,0,0,0,.3.49,8.84,8.84,0,0,0,1.3.61,6.07,6.07,0,0,1,1.32.67,2,2,0,0,1,.61.73A2.25,2.25,0,0,1,161.92,263.47Z"></path><path class="cls-7" d="M167,265.87a4,4,0,0,1-2.89-1,3.86,3.86,0,0,1-1-2.88,4.24,4.24,0,0,1,1-3A3.43,3.43,0,0,1,166.7,258a3.38,3.38,0,0,1,2.52.92,3.51,3.51,0,0,1,.9,2.55v1h-4.93a2,2,0,0,0,.53,1.39,1.87,1.87,0,0,0,1.38.5,6.12,6.12,0,0,0,1.31-.14,6.61,6.61,0,0,0,1.28-.46v1.61a4.91,4.91,0,0,1-1.17.41A7.25,7.25,0,0,1,167,265.87Zm-.3-6.44a1.33,1.33,0,0,0-1,.42,2,2,0,0,0-.43,1.2h2.93a1.75,1.75,0,0,0-.41-1.2A1.36,1.36,0,0,0,166.71,259.43Z"></path><path class="cls-7" d="M181.91,265.73h-7v-1.46l2.51-2.54c.74-.76,1.23-1.29,1.46-1.58a3.92,3.92,0,0,0,.49-.82,2.08,2.08,0,0,0,.15-.78,1.16,1.16,0,0,0-.33-.9,1.32,1.32,0,0,0-.89-.29,2.54,2.54,0,0,0-1.13.27,6.09,6.09,0,0,0-1.14.76L174.89,257a7.34,7.34,0,0,1,1.23-.89,4,4,0,0,1,1.06-.4,5.07,5.07,0,0,1,1.28-.14,3.79,3.79,0,0,1,1.66.34,2.61,2.61,0,0,1,1.11,1,2.49,2.49,0,0,1,.4,1.4,3.31,3.31,0,0,1-.25,1.3,4.88,4.88,0,0,1-.75,1.24,19.1,19.1,0,0,1-1.79,1.81l-1.29,1.21v.1h4.36Z"></path><path class="cls-7" d="M183.15,264.76a1.13,1.13,0,0,1,.31-.87,1.22,1.22,0,0,1,.9-.29,1.19,1.19,0,0,1,.87.3,1.12,1.12,0,0,1,.31.86,1.14,1.14,0,0,1-.31.85,1.17,1.17,0,0,1-.87.31,1.23,1.23,0,0,1-.89-.3A1.15,1.15,0,0,1,183.15,264.76Z"></path><path class="cls-7" d="M193.84,260.74a7,7,0,0,1-.86,3.87,3,3,0,0,1-2.64,1.26,2.92,2.92,0,0,1-2.61-1.3,6.8,6.8,0,0,1-.88-3.83,7.09,7.09,0,0,1,.85-3.9,3.32,3.32,0,0,1,5.25.06A6.85,6.85,0,0,1,193.84,260.74Zm-4.89,0a7.8,7.8,0,0,0,.32,2.63,1.11,1.11,0,0,0,2.13,0,10.65,10.65,0,0,0,0-5.26,1.12,1.12,0,0,0-1.06-.81,1.1,1.1,0,0,0-1.07.81A7.83,7.83,0,0,0,189,260.74Z"></path><path class="cls-7" d="M130,37.64h-2.11V33.32h-4v4.32h-2.12v-10H124v3.92h4V27.64H130Z"></path><path class="cls-7" d="M139.33,33.8a4.12,4.12,0,0,1-1,2.92,3.58,3.58,0,0,1-2.74,1.05,3.82,3.82,0,0,1-1.94-.48,3.21,3.21,0,0,1-1.3-1.38,4.68,4.68,0,0,1-.45-2.11,4.08,4.08,0,0,1,1-2.91,3.6,3.6,0,0,1,2.75-1,3.85,3.85,0,0,1,1.94.48,3.22,3.22,0,0,1,1.29,1.37A4.64,4.64,0,0,1,139.33,33.8Zm-5.28,0a3.21,3.21,0,0,0,.37,1.72,1.32,1.32,0,0,0,1.21.58,1.29,1.29,0,0,0,1.2-.58,3.19,3.19,0,0,0,.37-1.72,3.11,3.11,0,0,0-.37-1.7,1.34,1.34,0,0,0-1.21-.57,1.32,1.32,0,0,0-1.2.57A3.09,3.09,0,0,0,134.05,33.8Z"></path><path class="cls-7" d="M144.28,36.11a4.52,4.52,0,0,0,1.31-.24v1.55a4.58,4.58,0,0,1-1.92.35,2.35,2.35,0,0,1-1.82-.63,2.75,2.75,0,0,1-.57-1.9V31.56h-1v-.88l1.15-.7.6-1.61h1.34V30h2.14v1.57h-2.14v3.68a.8.8,0,0,0,.25.66A1,1,0,0,0,144.28,36.11Z"></path><path class="cls-7" d="M151.36,31.56h-1.81v6.08h-2.08V31.56h-1.15v-1l1.15-.56v-.56a2.48,2.48,0,0,1,.64-1.9,2.9,2.9,0,0,1,2.06-.61,5.22,5.22,0,0,1,1.92.33l-.53,1.53a4,4,0,0,0-1.17-.2.77.77,0,0,0-.64.26,1.12,1.12,0,0,0-.2.68V30h1.81Zm1.1-3.54q0-1,1.14-1c.76,0,1.13.34,1.13,1a1,1,0,0,1-.28.75,1.19,1.19,0,0,1-.85.27Q152.46,29,152.46,28Zm2.18,9.62h-2.09V30h2.09Z"></path><path class="cls-7" d="M158.38,33.73,155.92,30h2.37l1.48,2.44,1.5-2.44h2.36l-2.48,3.74,2.6,3.91h-2.37L159.77,35l-1.61,2.62h-2.37Z"></path><path class="cls-7" d="M172.77,31.56H171v6.08h-2.09V31.56h-1.14v-1l1.14-.56v-.56a2.48,2.48,0,0,1,.65-1.9,2.89,2.89,0,0,1,2.05-.61,5.31,5.31,0,0,1,1.93.33L173,28.78a3.93,3.93,0,0,0-1.16-.2.75.75,0,0,0-.64.26,1.12,1.12,0,0,0-.2.68V30h1.8Z"></path><path class="cls-7" d="M180.92,33.8a4.08,4.08,0,0,1-1,2.92,3.56,3.56,0,0,1-2.74,1.05,3.85,3.85,0,0,1-1.94-.48A3.19,3.19,0,0,1,174,35.91a4.68,4.68,0,0,1-.45-2.11,4.08,4.08,0,0,1,1-2.91,3.6,3.6,0,0,1,2.75-1,3.85,3.85,0,0,1,1.94.48,3.22,3.22,0,0,1,1.29,1.37A4.51,4.51,0,0,1,180.92,33.8Zm-5.29,0a3.3,3.3,0,0,0,.37,1.72,1.34,1.34,0,0,0,1.22.58,1.32,1.32,0,0,0,1.2-.58,3.29,3.29,0,0,0,.36-1.72,3.11,3.11,0,0,0-.37-1.7,1.56,1.56,0,0,0-2.41,0A3.09,3.09,0,0,0,175.63,33.8Z"></path><path class="cls-7" d="M186.9,29.85a3.48,3.48,0,0,1,.71.06l-.16,2a2.18,2.18,0,0,0-.61-.07,2.22,2.22,0,0,0-1.56.51,1.86,1.86,0,0,0-.56,1.44v3.89h-2.08V30h1.58l.31,1.29h.1a2.9,2.9,0,0,1,1-1A2.36,2.36,0,0,1,186.9,29.85Z"></path><path class="cls-7" d="M151.8,54.44h-7V53l2.5-2.54c.75-.76,1.23-1.29,1.46-1.58a3.53,3.53,0,0,0,.49-.82,2.08,2.08,0,0,0,.15-.78,1.12,1.12,0,0,0-.33-.89,1.27,1.27,0,0,0-.88-.3,2.51,2.51,0,0,0-1.13.27,5.51,5.51,0,0,0-1.14.76l-1.15-1.36a7.34,7.34,0,0,1,1.22-.89,4.47,4.47,0,0,1,1.06-.4,5.6,5.6,0,0,1,1.29-.14,3.77,3.77,0,0,1,1.65.34,2.61,2.61,0,0,1,1.11,1,2.5,2.5,0,0,1,.4,1.41,3.44,3.44,0,0,1-.24,1.29,4.88,4.88,0,0,1-.75,1.24,17.26,17.26,0,0,1-1.8,1.81l-1.28,1.21v.1h4.35Z"></path><path class="cls-7" d="M153.05,53.46a1.18,1.18,0,0,1,.3-.87,1.25,1.25,0,0,1,.9-.29,1.22,1.22,0,0,1,.88.3,1.32,1.32,0,0,1,0,1.71,1.17,1.17,0,0,1-.87.31,1.24,1.24,0,0,1-.89-.3A1.15,1.15,0,0,1,153.05,53.46Z"></path><path class="cls-7" d="M163.73,49.44a7,7,0,0,1-.86,3.88,3,3,0,0,1-2.64,1.25,3,3,0,0,1-2.61-1.3,6.88,6.88,0,0,1-.88-3.83,7,7,0,0,1,.86-3.9,3.33,3.33,0,0,1,5.25.06A6.86,6.86,0,0,1,163.73,49.44Zm-4.89,0a7.91,7.91,0,0,0,.32,2.64,1.1,1.1,0,0,0,1.07.79,1.12,1.12,0,0,0,1.07-.81,7.52,7.52,0,0,0,.32-2.62,7.52,7.52,0,0,0-.33-2.64,1.11,1.11,0,0,0-2.13,0A7.83,7.83,0,0,0,158.84,49.44Z"></path><path class="cls-7" d="M363.73,387.29h-2.09v-10h5.73V379h-3.64v2.57h3.39v1.73h-3.39Z"></path><path class="cls-7" d="M372.62,387.43a4,4,0,0,1-2.89-1,3.86,3.86,0,0,1-1-2.88,4.25,4.25,0,0,1,1-3,3.89,3.89,0,0,1,5.17-.13,3.48,3.48,0,0,1,.91,2.55v1h-4.93a2,2,0,0,0,.52,1.39,1.87,1.87,0,0,0,1.38.5,6.12,6.12,0,0,0,1.31-.14,6.94,6.94,0,0,0,1.29-.46v1.61a5.24,5.24,0,0,1-1.17.41A7.35,7.35,0,0,1,372.62,387.43Zm-.3-6.44a1.31,1.31,0,0,0-1,.42,1.86,1.86,0,0,0-.43,1.19h2.92a1.74,1.74,0,0,0-.4-1.19A1.37,1.37,0,0,0,372.32,381Z"></path><path class="cls-7" d="M382.28,387.29l-.4-1h-.05a3.22,3.22,0,0,1-1.09.92,3.5,3.5,0,0,1-1.45.25,2.34,2.34,0,0,1-1.73-.63,2.41,2.41,0,0,1-.63-1.79,2,2,0,0,1,.85-1.79,4.84,4.84,0,0,1,2.56-.64l1.33,0v-.34a1,1,0,0,0-1.19-1.16,5.36,5.36,0,0,0-2.15.55l-.69-1.4a6.2,6.2,0,0,1,2.92-.7,3.69,3.69,0,0,1,2.36.67,2.48,2.48,0,0,1,.82,2v5.09Zm-.61-3.54-.81,0a2.62,2.62,0,0,0-1.35.33,1,1,0,0,0-.44.91c0,.59.33.89,1,.89a1.6,1.6,0,0,0,1.16-.42,1.47,1.47,0,0,0,.43-1.11Z"></path><path class="cls-7" d="M389.11,385.77a4.52,4.52,0,0,0,1.31-.24v1.55a4.72,4.72,0,0,1-1.91.35,2.36,2.36,0,0,1-1.83-.63,2.77,2.77,0,0,1-.57-1.9v-3.68h-1v-.88l1.15-.7.6-1.62h1.34v1.63h2.14v1.57H388.2v3.68a.8.8,0,0,0,.25.66A1,1,0,0,0,389.11,385.77Z"></path><path class="cls-7" d="M397.38,387.29l-.28-1H397a2.19,2.19,0,0,1-.95.82,3.3,3.3,0,0,1-1.4.29,2.66,2.66,0,0,1-2-.72,2.88,2.88,0,0,1-.69-2.07v-5H394v4.47a2.2,2.2,0,0,0,.29,1.24,1.09,1.09,0,0,0,.94.41,1.4,1.4,0,0,0,1.26-.58,3.64,3.64,0,0,0,.39-1.94v-3.6H399v7.64Z"></path><path class="cls-7" d="M405.43,379.51a3.55,3.55,0,0,1,.71.06l-.16,1.95a2.77,2.77,0,0,0-.62-.06,2.21,2.21,0,0,0-1.55.51,1.85,1.85,0,0,0-.56,1.43v3.89h-2.08v-7.64h1.57l.31,1.29h.1a2.91,2.91,0,0,1,1-1A2.42,2.42,0,0,1,405.43,379.51Z"></path><path class="cls-7" d="M411,387.43a3.93,3.93,0,0,1-2.88-1,3.83,3.83,0,0,1-1-2.88,4.24,4.24,0,0,1,1-3,3.9,3.9,0,0,1,5.18-.13,3.51,3.51,0,0,1,.9,2.55v1h-4.93a2,2,0,0,0,.53,1.39,1.85,1.85,0,0,0,1.38.5,6,6,0,0,0,1.3-.14,6.94,6.94,0,0,0,1.29-.46v1.61a5.24,5.24,0,0,1-1.17.41A7.35,7.35,0,0,1,411,387.43Zm-.29-6.44a1.33,1.33,0,0,0-1,.42,1.91,1.91,0,0,0-.43,1.19h2.92a1.69,1.69,0,0,0-.4-1.19A1.36,1.36,0,0,0,410.69,381Z"></path><path class="cls-7" d="M425.88,387.29h-7v-1.47l2.51-2.53c.74-.76,1.23-1.29,1.45-1.58a4,4,0,0,0,.5-.82,2.08,2.08,0,0,0,.15-.78,1.13,1.13,0,0,0-.34-.9,1.3,1.3,0,0,0-.88-.29,2.54,2.54,0,0,0-1.13.27A5.64,5.64,0,0,0,420,380l-1.15-1.36a7.34,7.34,0,0,1,1.22-.89,4.22,4.22,0,0,1,1.06-.4,5.21,5.21,0,0,1,1.29-.14,3.77,3.77,0,0,1,1.65.34,2.7,2.7,0,0,1,1.12,1,2.57,2.57,0,0,1,.39,1.4,3.49,3.49,0,0,1-.24,1.3,4.88,4.88,0,0,1-.75,1.24,19.1,19.1,0,0,1-1.79,1.81l-1.29,1.21v.1h4.35Z"></path><path class="cls-4" d="M134.83,74.67h-3V57.86a11.93,11.93,0,0,0-11.92-11.92h-20v-3h20a14.93,14.93,0,0,1,14.92,14.92Z"></path><polygon class="cls-4" points="101.42 37.15 101.42 51.73 94.13 44.44 101.42 37.15"></polygon><path class="cls-6" d="M275.32,414H247.57v-3h27.75A11.94,11.94,0,0,0,287.24,399v-8.76h3V399A14.94,14.94,0,0,1,275.32,414Z"></path><polygon class="cls-6" points="281.45 391.24 296.03 391.24 288.74 383.96 281.45 391.24"></polygon><path class="cls-6" d="M290.16,320h-3v-16.8a11.93,11.93,0,0,0-11.92-11.93h-20v-3h20a14.94,14.94,0,0,1,14.92,14.93Z"></path><polygon class="cls-6" points="256.75 282.45 256.75 297.03 249.46 289.74 256.75 282.45"></polygon><path class="cls-1" d="M342,279.87h-3v-16.8a11.94,11.94,0,0,0-11.92-11.93H255.21v-3h71.88A15,15,0,0,1,342,263.07Z"></path><polygon class="cls-1" points="256.75 242.35 256.75 256.93 249.46 249.64 256.75 242.35"></polygon><rect class="cls-5" x="44.97" y="452.73" width="25.43" height="1.08"></rect><rect class="cls-5" y="443.81" width="46.3" height="18.94" rx="3.3"></rect><path class="cls-8" d="M12.09,457.7l-2.91-7.64h2.18l1.48,4.35a8.7,8.7,0,0,1,.31,1.57h0a6.77,6.77,0,0,1,.3-1.57L15,450.06h2.18l-2.91,7.64Z"></path><path class="cls-8" d="M22.93,457.7H20.82v-5.78l0-.95,0-1c-.35.35-.59.58-.73.69l-1.15.92-1-1.27,3.22-2.57h1.74Z"></path><path class="cls-8" d="M25.94,456.72a1.18,1.18,0,0,1,.3-.87,1.3,1.3,0,0,1,.9-.29,1.22,1.22,0,0,1,.88.3,1.17,1.17,0,0,1,.31.86,1.15,1.15,0,0,1-.32.85,1.17,1.17,0,0,1-.87.31,1.24,1.24,0,0,1-.89-.3A1.13,1.13,0,0,1,25.94,456.72Z"></path><path class="cls-8" d="M36.62,452.7a7,7,0,0,1-.86,3.88,3,3,0,0,1-2.64,1.26,3,3,0,0,1-2.61-1.3,6.94,6.94,0,0,1-.88-3.84,7,7,0,0,1,.86-3.9,3,3,0,0,1,2.63-1.25,2.93,2.93,0,0,1,2.61,1.31A6.88,6.88,0,0,1,36.62,452.7Zm-4.89,0a7.83,7.83,0,0,0,.32,2.64,1.1,1.1,0,0,0,1.07.79,1.12,1.12,0,0,0,1.07-.8,7.88,7.88,0,0,0,.32-2.63,7.6,7.6,0,0,0-.33-2.64,1.11,1.11,0,0,0-2.13,0A7.91,7.91,0,0,0,31.73,452.7Z"></path><rect class="cls-5" x="44.97" y="125.68" width="25.43" height="1.08"></rect><rect class="cls-5" y="116.75" width="46.3" height="18.94" rx="3.3"></rect><path class="cls-8" d="M12.09,130.64,9.18,123h2.18l1.48,4.36a8.77,8.77,0,0,1,.31,1.56h0a6.6,6.6,0,0,1,.3-1.56L15,123h2.18l-2.91,7.64Z"></path><path class="cls-8" d="M24.69,130.64h-7v-1.47l2.51-2.53c.75-.76,1.23-1.29,1.46-1.58a3.53,3.53,0,0,0,.49-.82,2.08,2.08,0,0,0,.15-.78,1.16,1.16,0,0,0-.33-.9,1.31,1.31,0,0,0-.88-.29,2.51,2.51,0,0,0-1.13.27,5.13,5.13,0,0,0-1.14.76l-1.15-1.36a7.34,7.34,0,0,1,1.22-.89,4.08,4.08,0,0,1,1.06-.4,5.1,5.1,0,0,1,1.29-.14,3.77,3.77,0,0,1,1.65.34,2.55,2.55,0,0,1,1.11,1,2.49,2.49,0,0,1,.4,1.4,3.53,3.53,0,0,1-.24,1.3,4.88,4.88,0,0,1-.75,1.24,18.3,18.3,0,0,1-1.8,1.81l-1.28,1.21v.1h4.35Z"></path><path class="cls-8" d="M25.94,129.67a1.15,1.15,0,0,1,.3-.87,1.25,1.25,0,0,1,.9-.3,1.18,1.18,0,0,1,.88.31,1.32,1.32,0,0,1,0,1.71,1.17,1.17,0,0,1-.87.31,1.21,1.21,0,0,1-.89-.31A1.11,1.11,0,0,1,25.94,129.67Z"></path><path class="cls-8" d="M36.62,125.65a7,7,0,0,1-.86,3.87,3,3,0,0,1-2.64,1.26,3,3,0,0,1-2.61-1.3,6.88,6.88,0,0,1-.88-3.83,7,7,0,0,1,.86-3.9,3,3,0,0,1,2.63-1.26,2.94,2.94,0,0,1,2.61,1.32A6.85,6.85,0,0,1,36.62,125.65Zm-4.89,0a7.8,7.8,0,0,0,.32,2.63,1.11,1.11,0,0,0,1.07.8,1.12,1.12,0,0,0,1.07-.81,7.81,7.81,0,0,0,.32-2.62,7.52,7.52,0,0,0-.33-2.64,1.11,1.11,0,0,0-2.13,0A7.83,7.83,0,0,0,31.73,125.65Z"></path><rect class="cls-5" x="44.97" y="43.9" width="25.43" height="1.08"></rect><rect class="cls-5" y="34.97" width="46.3" height="18.94" rx="3.3"></rect><path class="cls-8" d="M12.09,48.86,9.18,41.22h2.18l1.48,4.36a8.77,8.77,0,0,1,.31,1.56h0a6.6,6.6,0,0,1,.3-1.56L15,41.22h2.18l-2.91,7.64Z"></path><path class="cls-8" d="M24.69,48.86h-7V47.39l2.51-2.53c.75-.76,1.23-1.29,1.46-1.58a3.53,3.53,0,0,0,.49-.82,2.08,2.08,0,0,0,.15-.78,1.16,1.16,0,0,0-.33-.9,1.31,1.31,0,0,0-.88-.29,2.51,2.51,0,0,0-1.13.27,5.13,5.13,0,0,0-1.14.76l-1.15-1.37a7.79,7.79,0,0,1,1.22-.88,4.08,4.08,0,0,1,1.06-.4,5.1,5.1,0,0,1,1.29-.14,3.77,3.77,0,0,1,1.65.34A2.59,2.59,0,0,1,24,40a2.52,2.52,0,0,1,.4,1.41,3.53,3.53,0,0,1-.24,1.3A4.88,4.88,0,0,1,23.42,44a18.3,18.3,0,0,1-1.8,1.81L20.34,47v.1h4.35Z"></path><path class="cls-8" d="M25.94,47.89a1.15,1.15,0,0,1,.3-.87,1.25,1.25,0,0,1,.9-.3A1.22,1.22,0,0,1,28,47a1.2,1.2,0,0,1,.31.87,1.15,1.15,0,0,1-.32.85,1.4,1.4,0,0,1-1.76,0A1.11,1.11,0,0,1,25.94,47.89Z"></path><path class="cls-8" d="M34.91,48.86H32.8V43.08l0-.95,0-1c-.35.35-.59.58-.73.69L31,42.7l-1-1.27,3.22-2.56h1.74Z"></path></svg> 